<svg xmlns="http://www.w3.org/2000/svg" viewBox="0 0 26.61 17.35"><defs><style>.cls-1{fill:#0085ca;}.cls-2{fill:#fff;}</style></defs><title>academico</title><g id="Layer_2" data-name="Layer 2"><g id="Layer_1-2" data-name="Layer 1"><polygon class="cls-1" points="26.61 0 26.61 0.56 24.22 0.56 24.22 9.83 23.64 9.83 23.64 0.56 21.4 0.56 21.4 6.71 13.3 9.3 5.21 6.71 5.21 0.58 0 0.58 0 0 26.61 0"/><rect class="cls-1" x="23.64" y="11.57" width="0.58" height="3.47"/><path class="cls-1" d="M17.64,9.83A3.78,3.78,0,0,0,14,12.72H12.62a3.76,3.76,0,1,0,0,1.74H14a3.76,3.76,0,1,0,3.66-4.63M9,16.77a3.18,3.18,0,1,1,3.18-3.18A3.18,3.18,0,0,1,9,16.77m8.67,0a3.18,3.18,0,1,1,3.18-3.18,3.18,3.18,0,0,1-3.18,3.18"/><polygon class="cls-2" points="5.78 6.28 5.78 0.58 20.82 0.58 20.82 6.28 13.3 8.69 5.78 6.28"/></g></g></svg>