<svg xmlns="http://www.w3.org/2000/svg" viewBox="0 0 17.91 12.66"><defs><style>.cls-1{fill:none;stroke:#6d6e71;stroke-linecap:round;stroke-linejoin:round;stroke-width:0.55px;}</style></defs><title>conversa</title><g id="Layer_2" data-name="Layer 2"><g id="Layer_1-2" data-name="Layer 1"><path class="cls-1" d="M7.75.28C3.62.28.28,2.78.28,5.87a5.3,5.3,0,0,0,3,4.5,3.22,3.22,0,0,1-1.58,2,3.64,3.64,0,0,0,3.4-1.22,10.11,10.11,0,0,0,2.62.35c4.13,0,7.48-2.5,7.48-5.59S11.89.28,7.75.28Z"/><path class="cls-1" d="M15.86,10.91a3.1,3.1,0,0,0,1.78-2.63,3.2,3.2,0,0,0-2.08-2.77c0,.12,0,.24,0,.36a5.29,5.29,0,0,1-2.33,4.22,8.06,8.06,0,0,1-2,1.08,5.45,5.45,0,0,0,2,.37,5.83,5.83,0,0,0,1.53-.2,2.13,2.13,0,0,0,2,.71A1.91,1.91,0,0,1,15.86,10.91Z"/></g></g></svg>