<svg xmlns="http://www.w3.org/2000/svg" viewBox="0 0 13.18 17.44"><defs><style>.cls-1{fill:none;stroke:#005fa6;stroke-miterlimit:10;}.cls-2{fill:#010101;}.cls-3{fill:#005fa6;}</style></defs><title>css</title><g id="Layer_2" data-name="Layer 2"><g id="Layer_1-2" data-name="Layer 1"><polygon class="cls-1" points="11.5 15.61 6.59 16.93 1.68 15.61 0.55 3.33 12.63 3.33 11.5 15.61"/><path class="cls-2" d="M3.8,1.53V.8H4.87V0H3V2.26H4.87V1.53Zm3-.73h.74V0H5.67V.8l.74.73H5.67v.73H7.53V1.53ZM9.43.8h.74V0H8.31V.8l.74.73H8.31v.73h1.87V1.53Z"/><polygon class="cls-3" points="10.2 7.3 6.58 8.86 10.07 8.86 9.67 13.46 6.59 14.36 6.58 14.36 3.49 13.44 3.29 11.13 4.82 11.13 4.92 12.33 6.57 12.74 6.58 12.74 8.29 12.26 8.41 10.33 6.58 10.31 3.19 10.3 3.08 8.86 6.58 7.39 6.8 7.3 2.94 7.3 2.75 5.83 10.35 5.83 10.2 7.3"/></g></g></svg>