<svg xmlns="http://www.w3.org/2000/svg" viewBox="0 0 17.33 16.93"><defs><style>.cls-1{fill:#006f40;}.cls-2{fill:none;stroke:#006f40;stroke-miterlimit:10;}</style></defs><title>excel</title><g id="Layer_2" data-name="Layer 2"><g id="Layer_1-2" data-name="Layer 1"><path class="cls-1" d="M9.23,1V2.57h7.09v.18c0,3,0,6,0,9v1.76c0,.22,0,.44,0,.64H9.23v1.77H9.1c-1.95-.36-3.89-.69-5.84-1L1,14.51V2.42L3.15,2l6-1h.08m1-1H9.06L0,1.58V15.35c3,.53,6,1,9,1.58h1.22V15.15h6.12c.33,0,.82,0,.9-.43A9,9,0,0,0,17.32,13c0-3.42,0-6.83,0-10.25a1.78,1.78,0,0,0-.19-1,1.78,1.78,0,0,0-1-.19H10.23Z"/><path class="cls-1" d="M5.8,11.54a21.94,21.94,0,0,1-1-2.47c-.26.8-.65,1.55-.95,2.34l-1.3,0c.51-1,1-2,1.52-3-.44-1-.93-2-1.39-3L4,5.3c.3.77.62,1.53.86,2.32.26-.83.65-1.62,1-2.43l1.34-.08L5.58,8.33c.54,1.11,1.09,2.2,1.64,3.3-.48,0-1-.05-1.42-.09"/><rect class="cls-1" x="12.59" y="3.35" width="2.76" height="1.38"/><rect class="cls-1" x="12.59" y="5.51" width="2.76" height="1.38"/><rect class="cls-1" x="12.59" y="7.68" width="2.76" height="1.38"/><rect class="cls-1" x="12.59" y="9.84" width="2.76" height="1.38"/><rect class="cls-1" x="12.59" y="12.01" width="2.76" height="1.38"/><polygon class="cls-1" points="9.72 13.38 11.29 13.38 11.29 12.01 9.72 12.01 9.72 11.22 11.29 11.22 11.29 9.84 9.72 9.84 9.72 9.05 11.29 9.05 11.29 7.68 9.72 7.68 9.72 6.89 11.29 6.89 11.29 5.51 9.72 5.51 9.72 4.72 11.29 4.72 11.29 3.35 9.72 3.35 9.72 13.38"/><line class="cls-2" x1="9.72" y1="2.01" x2="9.72" y2="14.85"/></g></g></svg>