<svg xmlns="http://www.w3.org/2000/svg" viewBox="0 0 17.36 17.36"><defs><style>.cls-1{fill:#0085ca;}</style></defs><title>habilidades</title><g id="Layer_2" data-name="Layer 2"><g id="Layer_1-2" data-name="Layer 1"><path class="cls-1" d="M17.36,8.68a3.77,3.77,0,0,0-1.74-3.17h0A5.72,5.72,0,0,0,9.84,0,1.44,1.44,0,0,0,8.68.59,1.44,1.44,0,0,0,7.52,0,5.72,5.72,0,0,0,1.74,5.5h0A3.77,3.77,0,0,0,0,8.68a3.78,3.78,0,0,0,1.59,3.2,2.59,2.59,0,0,0,1.6,3.3,2.29,2.29,0,0,0,.64.14,2.6,2.6,0,0,0,4.85.62,2.6,2.6,0,0,0,3.5,1.13,2.56,2.56,0,0,0,1.35-1.75,2.59,2.59,0,0,0,2.37-2.8,2.69,2.69,0,0,0-.13-.64,3.78,3.78,0,0,0,1.59-3.2m-9,6.07a2,2,0,1,1-3-1.77.28.28,0,0,0,.11-.39.3.3,0,0,0-.39-.12,2.63,2.63,0,0,0-1.35,2.26,2,2,0,0,1,.29-4,1.42,1.42,0,0,0,.8-.24l.59.59a.29.29,0,0,0,.41,0,.28.28,0,0,0,0-.4l-.59-.59a1.47,1.47,0,0,0,.24-.79.29.29,0,0,0-.58,0,.86.86,0,0,1-.87.86,2.59,2.59,0,0,0-2.2,1.23A3.18,3.18,0,0,1,.58,8.68,3.18,3.18,0,0,1,3.76,5.5a.29.29,0,0,0,0-.58,3.72,3.72,0,0,0-1.43.28A5.24,5.24,0,0,1,7.52.58a.87.87,0,0,1,.87.87Zm7.12-3.4a2.59,2.59,0,0,0-2.2-1.23.29.29,0,1,0,0,.58,2,2,0,0,1,.29,4,2.62,2.62,0,0,0-1.34-2.26.31.31,0,0,0-.4.12A.3.3,0,0,0,12,13a2,2,0,1,1-3,1.77V6.65a1.75,1.75,0,0,0,1.17-.45l.65.66a.3.3,0,0,0,.41,0,.28.28,0,0,0,0-.4l-.7-.71a1.66,1.66,0,0,0,.2-.82.28.28,0,0,0-.28-.29.29.29,0,0,0-.29.29A1.16,1.16,0,0,1,9,6.08V1.45A.87.87,0,0,1,9.84.58,5.24,5.24,0,0,1,15,5.2a3.72,3.72,0,0,0-1.43-.28.29.29,0,0,0,0,.58,3.18,3.18,0,0,1,3.18,3.18,3.18,3.18,0,0,1-1.27,2.67"/></g></g></svg>