<svg xmlns="http://www.w3.org/2000/svg" viewBox="0 0 13.09 17.45"><defs><style>.cls-1{fill:none;stroke:#f0522c;stroke-miterlimit:10;}.cls-2{fill:#010101;}.cls-3{fill:#f0522c;}</style></defs><title>html</title><g id="Layer_2" data-name="Layer 2"><g id="Layer_1-2" data-name="Layer 1"><polygon class="cls-1" points="12.54 3.33 11.45 15.56 6.54 16.93 1.64 15.57 0.55 3.33 12.54 3.33"/><path class="cls-2" d="M1.66,0h.76V.75h.7V0h.77V2.28H3.12V1.52h-.7v.76H1.66ZM4.89.76H4.22V0h2.1V.76H5.65V2.28H4.89ZM6.66,0h.79l.49.8L8.43,0h.8V2.28H8.47V1.15L7.94,2h0L7.4,1.15V2.28H6.66ZM9.61,0h.76V1.53h1.07v.75H9.61Z"/><polygon class="cls-3" points="6.54 5.83 6.54 5.83 2.78 5.83 2.81 6.23 3.18 10.37 6.54 10.37 6.54 10.37 8.39 10.37 8.21 12.31 6.54 12.77 6.54 12.77 4.86 12.32 4.76 11.12 3.25 11.12 3.46 13.48 6.54 14.33 6.54 14.33 9.61 13.48 9.64 13.22 9.99 9.27 10.03 8.87 6.54 8.87 6.54 8.87 4.56 8.87 4.42 7.33 6.54 7.33 6.54 7.33 10.16 7.33 10.19 6.99 10.26 6.23 10.3 5.83 6.54 5.83"/></g></g></svg>