<svg xmlns="http://www.w3.org/2000/svg" viewBox="0 0 17.36 16.93"><defs><style>.cls-1{fill:#f57e2e;}</style></defs><title>illustrator</title><g id="Layer_2" data-name="Layer 2"><g id="Layer_1-2" data-name="Layer 1"><path class="cls-1" d="M.72.72H16.64V16.2H.72ZM0,16.93H17.36V0H0ZM11.37,6s0-.08.09-.08h1.13c.06,0,.09,0,.09.08v5.71c0,.06,0,.09-.09.09H11.47c-.07,0-.09,0-.09-.1V6Zm-.08-1.64a.74.74,0,0,1,1.48,0,.69.69,0,0,1-.76.74.68.68,0,0,1-.72-.74M8,8.41c-.21-.8-.68-2.55-.86-3.4h0c-.15.85-.53,2.28-.84,3.4ZM6,9.59l-.58,2.17c0,.05,0,.07-.1.07H4.28c-.07,0-.08,0-.07-.11L6.26,4.53a2.33,2.33,0,0,0,.08-.6c0-.05,0-.07,0-.07H7.91s.08,0,.09.07l2.3,7.8c0,.06,0,.1-.06.1H9a.1.1,0,0,1-.11-.07L8.34,9.59Z"/></g></g></svg>