<svg xmlns="http://www.w3.org/2000/svg" viewBox="0 0 17.36 16.93"><defs><style>.cls-1{fill:#ef4c88;}</style></defs><title>indesign</title><g id="Layer_2" data-name="Layer 2"><g id="Layer_1-2" data-name="Layer 1"><path class="cls-1" d="M.72.72H16.64V16.2H.72ZM0,16.93H17.36V0H0ZM11,7A1,1,0,0,0,10.56,7C9.62,7,9,7.68,9,8.87c0,1.36.67,1.91,1.5,1.91a1.19,1.19,0,0,0,.51-.09ZM10.6,5.85a2.36,2.36,0,0,1,.38,0V3.94a.07.07,0,0,1,.07-.07h1.18s.07,0,.07.06v6.76a6.54,6.54,0,0,0,0,.73c0,.05,0,.06-.06.09a4.38,4.38,0,0,1-1.9.43c-1.59,0-2.74-1-2.74-3a2.89,2.89,0,0,1,3-3.08M6.35,11.73c0,.08,0,.1-.09.1H5.14c-.07,0-.09,0-.09-.1V4a.08.08,0,0,1,.09-.09H6.26c.06,0,.09,0,.09.09Z"/></g></g></svg>