<svg xmlns="http://www.w3.org/2000/svg" viewBox="0 0 17.36 16.93"><defs><style>.cls-1{fill:#00b5dc;}</style></defs><title>photoshop</title><g id="Layer_2" data-name="Layer 2"><g id="Layer_1-2" data-name="Layer 1"><path class="cls-1" d="M.72.72H16.64V16.21H.72ZM0,16.93H17.36V0H0Zm11.7-10c-.57,0-.76.3-.76.53s.13.44.9.84c1.13.55,1.49,1.08,1.49,1.85,0,1.16-.89,1.78-2.08,1.78a3.14,3.14,0,0,1-1.48-.31s-.06-.06-.06-.11V10.45c0-.07,0-.09.09,0a2.7,2.7,0,0,0,1.45.42c.57,0,.81-.24.81-.56s-.17-.49-.9-.87c-1-.49-1.45-1-1.45-1.82a1.77,1.77,0,0,1,2-1.71,3.31,3.31,0,0,1,1.3.2.17.17,0,0,1,.07.15v1c0,.06,0,.09-.11.07a2.45,2.45,0,0,0-1.26-.33m-6.22.87h.59c.85,0,1.64-.3,1.64-1.45C7.71,5.46,7.14,5,6.18,5l-.7,0ZM4.2,4s.1-.08.15-.08c.47,0,1.16,0,1.87,0,2,0,2.79,1.1,2.79,2.51C9,8.18,7.67,9,6,9H5.48v2.78s0,.08-.09.08H4.28c-.06,0-.08,0-.08-.08Z"/></g></g></svg>