<svg xmlns="http://www.w3.org/2000/svg" viewBox="0 0 18.07 18.12"><defs><style>.cls-1{fill:#de4c32;}.cls-2,.cls-3{fill:none;stroke:#de4c32;stroke-miterlimit:10;}.cls-2{stroke-width:0.5px;}</style></defs><title>powerpoint</title><g id="Layer_2" data-name="Layer 2"><g id="Layer_1-2" data-name="Layer 1"><path class="cls-1" d="M12.55,4.51V6.93H14.9a2.38,2.38,0,0,0-2.35-2.42"/><path class="cls-1" d="M10.4,8.83a2.33,2.33,0,0,0,1.79.85,2.38,2.38,0,0,0,2.35-2.41H12.19V4.86a2.32,2.32,0,0,0-1.79.84Z"/><rect class="cls-1" x="10.4" y="10.72" width="5.34" height="0.68"/><rect class="cls-1" x="10.4" y="12.56" width="5.34" height="0.68"/><path class="cls-1" d="M10.4,15.3h6.85a.58.58,0,0,0,.57-.59V3a.57.57,0,0,0-.57-.58H10.4V3h6.85V14.71H10.4Z"/><path class="cls-2" d="M10.4,15.3h6.85a.58.58,0,0,0,.57-.59V3a.57.57,0,0,0-.57-.58H10.4V3h6.85V14.71H10.4Z"/><polygon class="cls-3" points="10.4 0.6 0.5 2.36 0.5 15.76 10.4 17.52 10.4 0.6"/><path class="cls-1" d="M6.53,6.59A.92.92,0,0,0,6,6.27c-.76,0-1.52,0-2.29,0V12h1V10.06a5.85,5.85,0,0,0,1-.1A1.62,1.62,0,0,0,6.93,8.67a2.13,2.13,0,0,0-.4-2.08M5.71,8.64c-.24.42-.62.35-1,.32V7.29a1,1,0,0,1,1,.21,1.18,1.18,0,0,1,0,1.14"/></g></g></svg>