<svg xmlns="http://www.w3.org/2000/svg" viewBox="0 0 20.45 17.35"><defs><style>.cls-1{fill:#0085ca;}</style></defs><title>trabalho</title><g id="Layer_2" data-name="Layer 2"><g id="Layer_1-2" data-name="Layer 1"><path class="cls-1" d="M17.77,3.37H14.31V.88a.77.77,0,0,0-.4-.65A1.5,1.5,0,0,0,13.08,0H7.37a1.53,1.53,0,0,0-.84.23.79.79,0,0,0-.4.65V3.37H2.67A2.46,2.46,0,0,0,0,5.52v9.69a2.45,2.45,0,0,0,2.67,2.14h15.1a2.46,2.46,0,0,0,2.68-2.14V5.52a2.46,2.46,0,0,0-2.68-2.15M6.84.88c0-.13.22-.27.53-.27h5.71c.3,0,.53.14.53.27V3.37H6.84ZM2.67,4h15.1a1.8,1.8,0,0,1,2,1.54v2.9H13.29V7.5a.94.94,0,0,0-1-.88H8.15a.94.94,0,0,0-1,.88v.92H.7V5.52A1.8,1.8,0,0,1,2.67,4M12.59,7.5v3a.28.28,0,0,1-.29.27H8.15a.28.28,0,0,1-.29-.27v-3a.28.28,0,0,1,.29-.27H12.3a.28.28,0,0,1,.29.27m5.18,9.24H2.67a1.8,1.8,0,0,1-2-1.53V9H7.15v1.49a.94.94,0,0,0,1,.88H12.3a.94.94,0,0,0,1-.88V9h6.45v6.18a1.79,1.79,0,0,1-2,1.53"/></g></g></svg>