<svg xmlns="http://www.w3.org/2000/svg" viewBox="0 0 18.35 18.11"><defs><style>.cls-1,.cls-3{fill:none;stroke-miterlimit:10;}.cls-1{stroke:#ffd438;stroke-width:0.01px;}.cls-2{fill:#ffd438;}.cls-3{stroke:#005392;stroke-width:1.02px;}.cls-4{fill:#005392;}</style></defs><title>word</title><g id="Layer_2" data-name="Layer 2"><g id="Layer_1-2" data-name="Layer 1"><polygon class="cls-1" points="18.14 6.55 18.13 6.44 18.24 6.44 18.23 6.55 18.19 6.56 18.14 6.55"/><polygon class="cls-2" points="18.22 6.53 18.22 6.49 18.2 6.5 18.2 6.48 18.22 6.48 18.22 6.46 18.19 6.46 18.19 6.51 18.21 6.5 18.21 6.51 18.19 6.52 18.19 6.53 18.22 6.53"/><polygon class="cls-2" points="18.18 6.46 18.17 6.46 18.17 6.52 18.15 6.51 18.15 6.53 18.18 6.53 18.18 6.46"/><path class="cls-3" d="M17.82,2.93a.67.67,0,0,0-.76-.75c-2.11,0-4.21,0-6.32,0V.59S3.53,1.64.51,2.17V15.94c3,.53,10.23,1.58,10.23,1.58V15.94h5.91a1.89,1.89,0,0,0,1-.19,2.34,2.34,0,0,0,.19-1.2C17.81,10.69,17.85,6.81,17.82,2.93ZM10.74,15.65V2.46"/><path class="cls-4" d="M7.08,11.73c-.33.17-.82,0-1.21,0-.27-1.3-.57-2.6-.8-3.91-.23,1.27-.53,2.53-.8,3.8l-1.13-.07c-.33-1.73-.72-3.45-1-5.19l1,0c.2,1.25.43,2.5.61,3.76l.84-3.87L5.7,6.18c.26,1.33.53,2.65.81,4,.23-1.37.47-2.73.71-4.1C7.61,6.05,8,6,8.4,6,8,7.91,7.56,9.83,7.08,11.73"/><polyline class="cls-4" points="10.74 4.92 15.86 4.92 15.86 4.13 10.74 4.13"/><polyline class="cls-4" points="10.74 6.69 15.86 6.69 15.86 5.91 10.74 5.91"/><polyline class="cls-4" points="10.74 8.46 15.86 8.46 15.86 7.68 10.74 7.68"/><polyline class="cls-4" points="10.74 10.24 15.86 10.24 15.86 9.45 10.74 9.45"/><polyline class="cls-4" points="10.74 12.01 15.86 12.01 15.86 11.22 10.74 11.22"/><polyline class="cls-4" points="10.74 13.78 15.86 13.78 15.86 12.99 10.74 12.99"/></g></g></svg>